# xmcd
#
# Track frame offsets:
#	150
#	14948
#	27636
#	40907
#	59927
#	82902
#	99358
#	110557
#	125895
#	140119
#	160213
#	175603
#	191194
#	205355
#	221419
#	237374
#	253373
#	272232
#	290088
#	304979
#
# Disc length: 4278
#
# Revision: 1
# Processed by: cddbd v1.5.1PL0 Copyright (c) Steve Scherf et al.
# Submitted via: FreeRIP 2.80 
# Normalized: r0:DSETVAR1
#
DISCID=4b10b414
DTITLE=Various Artist - Saloon Tunes 27
DYEAR=1900
DGENRE=country
TTITLE0=Adam Gregory - horseshoes
TTITLE1=Alan Jackson - It Must Be Love
TTITLE2=Anita Cochrane - Good Times
TTITLE3=Chely Wright - She Went Out For Cigarettes
TTITLE4=Dixie chicks - Cold Day In July
TTITLE5=Farmer's daughter - You And Only You
TTITLE6=George Jones - Sinners and saints
TTITLE7=George Strait - The Best Day
TTITLE8=Jeff Foxworthy f Marty stuart - Blue Collar Dollar
TTITLE9=Kathy Mattea - Touble With Angels
TTITLE10=Martina Mcbride - There You Are
TTITLE11=Reba McIntire - We're So Good Together
TTITLE12=River Road - Breathless
TTITLE13=Tammy Cochrane - If You Can
TTITLE14=Tracy Byrd - Love You Ain't Seen The Last Of Me
TTITLE15=Ty Herndon - A Love Like That
TTITLE16=Vince Gill - Feels Like Love
TTITLE17=Wynonna - Going Nowhere
TTITLE18=Brooks and Dunn - Boot Scootin Boogie
TTITLE19=Dan hill - Sometimes When We Touch
EXTD=
EXTT0=
EXTT1=
EXTT2=
EXTT3=
EXTT4=
EXTT5=
EXTT6=
EXTT7=
EXTT8=
EXTT9=
EXTT10=
EXTT11=
EXTT12=
EXTT13=
EXTT14=
EXTT15=
EXTT16=
EXTT17=
EXTT18=
EXTT19=
PLAYORDER=
